<svg width="208" height="50" viewBox="0 0 208 50" fill="none" xmlns="http://www.w3.org/2000/svg">
<path d="M61.6988 2.672C63.9068 2.672 65.8748 2.96 67.6028 3.536C69.3308 4.08 70.7708 4.88 71.9228 5.936C73.1068 6.96 74.0028 8.208 74.6108 9.68C75.2188 11.12 75.5228 12.752 75.5228 14.576C75.5228 16.016 75.2988 17.456 74.8508 18.896C74.4348 20.336 73.7308 21.648 72.7388 22.832C71.7788 24.016 70.4988 24.976 68.8988 25.712C67.2988 26.416 65.3148 26.768 62.9468 26.768H57.9548V38H50.9948V2.672H61.6988ZM62.8988 20.048C63.9548 20.048 64.8348 19.872 65.5388 19.52C66.2428 19.168 66.7868 18.72 67.1708 18.176C67.5868 17.632 67.8748 17.072 68.0348 16.496C68.2268 15.888 68.3228 15.328 68.3228 14.816C68.3228 14.432 68.2588 13.952 68.1308 13.376C68.0348 12.768 67.8108 12.16 67.4588 11.552C67.1068 10.944 66.5628 10.432 65.8268 10.016C65.1228 9.6 64.1628 9.392 62.9468 9.392H57.9548V20.048H62.8988ZM69.4268 24.368L78.1628 38H70.0508L61.1228 24.56L69.4268 24.368ZM92.1796 38.576C89.6196 38.576 87.4436 38.096 85.6516 37.136C83.8916 36.176 82.5476 34.848 81.6196 33.152C80.6916 31.456 80.2276 29.504 80.2276 27.296C80.2276 25.184 80.7716 23.28 81.8596 21.584C82.9476 19.888 84.4036 18.544 86.2276 17.552C88.0516 16.528 90.0836 16.016 92.3236 16.016C95.3316 16.016 97.7956 16.896 99.7156 18.656C101.668 20.384 102.932 22.896 103.508 26.192L87.1876 31.376L85.6996 27.728L97.5076 23.744L96.1156 24.368C95.8596 23.536 95.3956 22.816 94.7236 22.208C94.0836 21.568 93.1076 21.248 91.7956 21.248C90.8036 21.248 89.9236 21.488 89.1556 21.968C88.4196 22.416 87.8436 23.072 87.4276 23.936C87.0436 24.768 86.8516 25.76 86.8516 26.912C86.8516 28.224 87.0916 29.328 87.5716 30.224C88.0516 31.088 88.7076 31.744 89.5396 32.192C90.3716 32.64 91.2996 32.864 92.3236 32.864C93.0596 32.864 93.7636 32.736 94.4356 32.48C95.1396 32.224 95.8276 31.888 96.4996 31.472L99.4756 36.464C98.3556 37.104 97.1396 37.616 95.8276 38C94.5476 38.384 93.3316 38.576 92.1796 38.576ZM115.207 38.432C113.479 38.432 111.863 38.128 110.359 37.52C108.887 36.912 107.639 36.064 106.615 34.976L109.399 31.28C110.423 32.208 111.367 32.88 112.231 33.296C113.127 33.68 113.927 33.872 114.631 33.872C115.175 33.872 115.655 33.824 116.071 33.728C116.519 33.6 116.871 33.424 117.127 33.2C117.383 32.944 117.511 32.624 117.511 32.24C117.511 31.696 117.287 31.264 116.839 30.944C116.423 30.624 115.879 30.368 115.207 30.176C114.535 29.952 113.815 29.728 113.047 29.504C111.127 28.896 109.735 28.016 108.871 26.864C108.039 25.68 107.623 24.4 107.623 23.024C107.623 21.968 107.895 20.912 108.439 19.856C109.015 18.768 109.911 17.872 111.127 17.168C112.375 16.432 113.975 16.064 115.927 16.064C117.687 16.064 119.175 16.24 120.391 16.592C121.607 16.944 122.759 17.52 123.847 18.32L121.303 22.256C120.695 21.776 120.007 21.376 119.239 21.056C118.503 20.704 117.815 20.512 117.175 20.48C116.599 20.448 116.103 20.512 115.687 20.672C115.303 20.832 114.999 21.04 114.775 21.296C114.551 21.552 114.439 21.824 114.439 22.112C114.407 22.72 114.631 23.2 115.111 23.552C115.623 23.904 116.263 24.176 117.031 24.368C117.799 24.56 118.551 24.784 119.287 25.04C120.311 25.36 121.191 25.792 121.927 26.336C122.663 26.88 123.223 27.536 123.607 28.304C124.023 29.04 124.231 29.936 124.231 30.992C124.231 32.272 123.895 33.488 123.223 34.64C122.583 35.76 121.591 36.672 120.247 37.376C118.935 38.08 117.255 38.432 115.207 38.432ZM128.228 27.248C128.228 25.104 128.724 23.184 129.716 21.488C130.74 19.792 132.164 18.464 133.988 17.504C135.812 16.512 137.908 16.016 140.276 16.016C142.676 16.016 144.756 16.512 146.516 17.504C148.276 18.464 149.62 19.792 150.548 21.488C151.508 23.184 151.988 25.104 151.988 27.248C151.988 29.392 151.508 31.328 150.548 33.056C149.62 34.752 148.276 36.096 146.516 37.088C144.756 38.08 142.644 38.576 140.18 38.576C137.876 38.576 135.812 38.128 133.988 37.232C132.196 36.336 130.788 35.04 129.764 33.344C128.74 31.648 128.228 29.616 128.228 27.248ZM134.996 27.296C134.996 28.384 135.22 29.376 135.668 30.272C136.116 31.136 136.724 31.824 137.492 32.336C138.26 32.848 139.124 33.104 140.084 33.104C141.14 33.104 142.052 32.848 142.82 32.336C143.588 31.824 144.18 31.136 144.596 30.272C145.012 29.376 145.22 28.384 145.22 27.296C145.22 26.176 145.012 25.184 144.596 24.32C144.18 23.456 143.588 22.768 142.82 22.256C142.052 21.744 141.14 21.488 140.084 21.488C139.124 21.488 138.26 21.744 137.492 22.256C136.724 22.768 136.116 23.456 135.668 24.32C135.22 25.184 134.996 26.176 134.996 27.296ZM157.281 0.127998H164.001V38H157.281V0.127998ZM180.522 38.432L167.946 17.024H175.914L183.066 31.52L178.938 31.376L185.13 17.024H192.618L180.714 38.432H180.522ZM196.563 17.024H203.283V38H196.563V17.024ZM196.419 9.584C196.419 8.592 196.803 7.776 197.571 7.136C198.371 6.496 199.219 6.176 200.115 6.176C201.011 6.176 201.827 6.496 202.563 7.136C203.331 7.776 203.715 8.592 203.715 9.584C203.715 10.576 203.331 11.392 202.563 12.032C201.827 12.64 201.011 12.944 200.115 12.944C199.219 12.944 198.371 12.64 197.571 12.032C196.803 11.392 196.419 10.576 196.419 9.584Z" fill="white"/>
<path d="M33.2401 14.8817H22.9936L24.5944 5.04337C24.8665 3.55738 23.1084 2.56674 21.9774 3.56805L10.9592 14.3272C10.1918 15.0075 9.75171 15.9812 9.75171 17.0058V34.7908C9.75171 36.517 11.1505 37.9137 12.8746 37.9137H27.7366C29.9071 37.9137 31.8671 36.6127 32.7153 34.6165L38.0151 22.0995C39.4713 18.6769 36.9582 14.8817 33.2401 14.8817Z" fill="white"/>
<path d="M5.51232 16.9335H1.67091C0.746176 16.9335 0 17.6839 0 18.6044V36.3127C0 37.2374 0.750421 37.9836 1.67091 37.9836H5.51232C6.43706 37.9836 7.18323 37.2332 7.18323 36.3127V18.6109C7.18323 17.6862 6.43706 16.9335 5.51232 16.9335Z" fill="white"/>
</svg>
